HIERARCHY
ROOT pelvis
{
  OFFSET 0 100 0
  CHANNELS 6 Xposition Yposition Zposition Zrotation Xrotation Yrotation
  JOINT pelvis_right_femur
  {
    OFFSET -10.78128 -3.44521 -0.5502486
    CHANNELS 3 Zrotation Xrotation Yrotation
    JOINT right_femur_tibia
    {
      OFFSET -0.8047443 -44.0398 -0.1307829
      CHANNELS 3 Zrotation Xrotation Yrotation
      JOINT right_tibia_foot
      {
        OFFSET 3.006224 -47.83518 -5
        CHANNELS 3 Zrotation Xrotation Yrotation
        End Site
        {
          OFFSET 0 -5 15
        }
      }
    }
  }
  JOINT pelvis_left_femur
  {
    OFFSET 10.78128 -3.44521 -0.5502486
    CHANNELS 3 Zrotation Xrotation Yrotation
    JOINT left_femur_tibia
    {
      OFFSET 0.8047443 -44.0398 -0.1307829
      CHANNELS 3 Zrotation Xrotation Yrotation
      JOINT left_tibia_foot
      {
        OFFSET -4.370144 -48.10324 -4.275266
        CHANNELS 3 Zrotation Xrotation Yrotation
        End Site
        {
          OFFSET 0 -5 15
        }
      }
    }
  }
  JOINT pelvis_spine1
  {
    OFFSET 0 6.468898 -3.129235
    CHANNELS 3 Zrotation Xrotation Yrotation
    JOINT spine1
    {
      OFFSET 0 23.15396 4.99043
      CHANNELS 3 Zrotation Xrotation Yrotation
      JOINT spine2
      {
        OFFSET 0 20.79997 -5.064912
        CHANNELS 3 Zrotation Xrotation Yrotation
        JOINT neck
        {
          OFFSET 0 14.38658 9.616178
          CHANNELS 3 Zrotation Xrotation Yrotation
          End Site
          {
            OFFSET 0 20 0
          }
        }
      }
      JOINT right_manubrium
      {
        OFFSET -5.722621 16.35077 3.967754
        CHANNELS 3 Zrotation Xrotation Yrotation
        JOINT right_clavicle
        {
          OFFSET -13.16364 1.694482 -4.693211
          CHANNELS 3 Zrotation Xrotation Yrotation
          JOINT right_humerus
          {
            OFFSET -28.5034 -0.3100689 -2.792744
            CHANNELS 3 Zrotation Xrotation Yrotation
            JOINT right_radius
            {
              OFFSET -25.15693 0.02248979 -1.271978
              CHANNELS 3 Zrotation Xrotation Yrotation
              End Site
              {
                OFFSET -15 0 0
              }
            }
          }
        }
      }
      JOINT left_manubrium
      {
        OFFSET 5.722621 16.35077 3.967754
        CHANNELS 3 Zrotation Xrotation Yrotation
        JOINT left_clavicle
        {
          OFFSET 13.16364 1.694482 -4.693211
          CHANNELS 3 Zrotation Xrotation Yrotation
          JOINT left_humerus
          {
            OFFSET 29.39168 -1.063119 -2.237045
            CHANNELS 3 Zrotation Xrotation Yrotation
            JOINT left_radius
            {
              OFFSET 24.59957 -0.9528479 0.9047498
              CHANNELS 3 Zrotation Xrotation Yrotation
              End Site
              {
                OFFSET 15 -0 -0
              }
            }
          }
        }
      }
    }
  }
}
MOTION
Frames: 11
Frame Time: 0.0416666666667
-356.9564 108.1964 2552.893 -3.951496 -9.563171 -26.82932 -0.1665849 -1.514187 -2.329246 -0 47.36163 -0 -16.35659 10.62365 2.820744 -4.858908 3.37806 -14.6984 -0 12.5138 -0 -0.5881528 -12.48477 19.46594 -2.151563 0.7948242 3.96595 -2.00659 10.99295 -2.850057 1.588557 24.5964 6.712249 6.435751 -15.48744 5.557366 3.255144 -17.65174 11.0617 85.21791 32.46212 -9.761226 -0 0 12.89862 -22.82139 8.538003 9.852793 6.862124 -20.60328 -7.008798 -89.8363 12.9407 16.4224 0 0 -7.111662 15.8349 16.16004 -7.615337
-358.4985 108.48 2557.177 -3.738921 -8.842728 -26.3075 -0.01781205 -6.387518 -2.960987 -0 41.87695 -0 -15.25672 7.187163 1.847273 -4.766992 6.023037 -14.81877 -0 10.19338 -0 -0.6402159 -14.27758 18.60548 -2.202308 0.6995783 3.491406 -1.760862 11.14611 -3.518284 1.406437 24.48509 6.926627 6.473622 -15.83294 5.562335 3.163539 -17.12524 11.10229 86.46824 32.18017 -11.9733 -0 0 11.35748 -22.68228 8.589626 9.432633 7.402295 -21.63087 -7.24619 -88.26626 12.63527 13.9268 0 0 -11.17223 16.88898 15.84988 -8.942854
-359.9474 108.2823 2561.194 -3.170593 -7.895102 -25.88827 -0.06684269 -10.36256 -3.526236 -0 35.5013 -0 -13.97428 3.747115 1.096175 -4.934717 8.203939 -15.15856 -0 8.172416 -0 -0.4626541 -15.96219 17.9882 -2.245933 0.5025233 3.155023 -1.497662 11.2689 -4.127971 1.210719 24.3221 7.094005 6.475273 -16.12956 5.515418 3.05305 -16.81277 11.16323 87.42757 31.69114 -13.78538 -0 0 10.26071 -22.59184 8.640225 9.137927 7.879028 -22.5781 -7.388095 -87.06913 12.2597 12.04631 0 0 -14.61025 17.6386 15.57494 -9.947451
-361.3022 107.7225 2564.943 -2.36581 -6.712168 -25.58082 -0.05638822 -13.72598 -3.694423 -0 29.79325 -0 -12.53605 0.7215031 0.5703604 -5.303902 9.884166 -15.6723 -0 6.649754 -0 0.3209906 -17.31929 17.81142 -2.290628 0.322698 2.984614 -1.306772 11.36339 -4.566833 1.055185 24.1594 7.197581 6.484381 -16.33856 5.439648 2.964676 -16.69467 11.20459 88.04244 31.35123 -14.98862 -0 0 9.683606 -22.50991 8.64339 8.897353 8.213368 -23.26932 -7.476579 -86.30436 11.89065 10.88652 0 0 -16.97456 18.10818 15.31256 -10.62559
-362.5534 106.9526 2568.419 -1.468676 -5.310818 -25.37706 0.2164975 -16.78686 -3.214848 -0 25.63347 -0 -10.99045 -1.814352 0.1960531 -5.78162 11.05195 -16.28609 -0 5.69384 -0 1.888571 -18.22513 18.20426 -2.351974 0.2363076 2.953586 -1.221764 11.41404 -4.79897 0.9626826 24.03252 7.255135 6.519696 -16.46321 5.377218 2.927557 -16.71517 11.20513 88.34742 31.38306 -15.5634 -0 0 9.559173 -22.38588 8.57633 8.66886 8.384185 -23.62692 -7.525268 -85.90347 11.59402 10.34701 0 0 -18.23097 18.35776 15.03748 -11.02815
-363.708 106.1111 2571.645 -0.6252946 -3.757364 -25.25474 0.8453854 -19.76867 -2.079303 -0 23.17056 -0 -9.506108 -3.806933 -0.07867364 -6.259774 11.76445 -16.90476 -0 5.302836 -0 4.03789 -18.7234 19.10718 -2.445404 0.261196 3.006766 -1.228859 11.3912 -4.843864 0.9327992 23.96283 7.300288 6.572186 -16.53147 5.377247 2.953324 -16.80365 11.16273 88.40991 31.83446 -15.60961 -0 0 9.721517 -22.18567 8.44079 8.455635 8.415113 -23.65534 -7.516139 -85.75069 11.42638 10.22987 0 0 -18.60673 18.44984 14.7593 -11.21148
-364.8046 105.2855 2574.696 0.05262492 -2.162301 -25.1801 1.783494 -22.78645 -0.599138 -0 21.82074 -0 -8.301076 -5.108695 -0.2515381 -6.640825 12.15867 -17.39664 -0 5.41369 -0 6.238107 -19.02519 20.21775 -2.575112 0.3787472 3.094097 -1.296837 11.27666 -4.740374 0.9571178 23.9603 7.357012 6.619573 -16.5712 5.474284 3.041189 -16.90175 11.08763 88.28766 32.63887 -15.25295 -0 0 10.00498 -21.90104 8.259244 8.286168 8.33892 -23.39693 -7.426417 -85.75444 11.42725 10.3651 0 0 -18.36015 18.43197 14.51495 -11.21432
-365.9066 104.4994 2577.696 0.520514 -0.6480323 -25.11146 2.882651 -25.86434 0.7802311 -0 20.68222 -0 -7.501591 -5.537422 -0.2912589 -6.867949 12.4158 -17.61676 -0 5.940675 -0 7.972552 -19.36786 21.13573 -2.732718 0.5503199 3.195382 -1.394347 11.0895 -4.541561 1.020746 24.00963 7.426911 6.646429 -16.60551 5.662182 3.177111 -16.99241 10.99401 88.03638 33.68118 -14.63251 -0 0 10.32678 -21.53802 8.058108 8.163282 8.185769 -22.93311 -7.26026 -85.85667 11.57869 10.65361 0 0 -17.72439 18.34366 14.31571 -11.08112
-367.0879 103.7328 2580.802 0.7931251 0.684312 -25.00223 3.98228 -28.935 1.750504 -0 19.09591 -0 -7.095118 -5.013376 -0.1857403 -6.932408 12.70491 -17.4626 -0 6.84591 -0 9.000124 -19.85228 21.56707 -2.9061 0.7317926 3.315958 -1.495948 10.87505 -4.308723 1.103752 24.07421 7.497836 6.650327 -16.65823 5.903251 3.336729 -17.09661 10.8931 87.72205 34.84748 -13.89856 -0 0 10.68325 -21.10289 7.852038 8.05138 7.984616 -22.37223 -7.047799 -86.01444 11.81189 11.043 0 0 -16.92033 18.22369 14.13098 -10.87229
-368.426 102.9575 2584.181 0.8978312 1.752843 -24.80029 4.961261 -31.80651 2.204196 -0 16.88024 -0 -7.007598 -3.599875 0.03584011 -6.846221 13.16487 -16.89661 -0 8.202386 -0 9.259115 -20.41906 21.35707 -3.085602 0.8894941 3.463958 -1.584616 10.67269 -4.09006 1.189792 24.12189 7.558669 6.633719 -16.75101 6.162449 3.496944 -17.24001 10.79168 87.40529 36.04913 -13.17496 -0 0 11.0888 -20.60161 7.646409 7.91305 7.759511 -21.80473 -6.819899 -86.19633 12.0649 11.49966 0 0 -16.11831 18.10438 13.92777 -10.64046
-370.0021 102.175 2588.004 0.833082 2.476689 -24.45017 5.742691 -34.11706 2.151026 -0 14.29192 -0 -7.178137 -1.488304 0.2966251 -6.60818 13.9077 -15.92619 -0 10.2345 -0 8.638826 -20.89544 20.39126 -3.260728 1.005023 3.634697 -1.650274 10.50283 -3.911274 1.270349 24.14027 7.60346 6.597263 -16.89261 6.419896 3.642177 -17.42624 10.69545 87.12586 37.20361 -12.54077 -0 0 11.5304 -20.05388 7.450275 7.740072 7.528948 -21.28485 -6.595955 -86.38511 12.31277 11.99255 0 0 -15.41145 18.00356 13.70544 -10.41281
